<svg xmlns="http://www.w3.org/2000/svg" xmlns:xlink="http://www.w3.org/1999/xlink" viewBox="0 0 596.26 381.69"><defs><style>.cls-1,.cls-2{opacity:0.7;}.cls-1{fill:url(#linear-gradient);}.cls-2{fill:url(#linear-gradient-2);}</style><linearGradient id="linear-gradient" y1="101.22" x2="272.76" y2="101.22" gradientUnits="userSpaceOnUse"><stop offset="0" stop-color="#e9ac89"/><stop offset="1" stop-color="#f3ddbe"/></linearGradient><linearGradient id="linear-gradient-2" x1="346.92" y1="300.94" x2="596.26" y2="300.94" xlink:href="#linear-gradient"/></defs><title>Asset 2</title><g id="Layer_2" data-name="Layer 2"><g id="OBJECTS"><path class="cls-1" d="M272.76,0c-12.63,20.31-26.54,40.29-47.16,51.89-14.57,8.2-31.31,11.47-47.48,15.75-33.77,9-67.05,23.33-91.92,47.88-20,19.73-33.69,45.17-54,64.53A130.54,130.54,0,0,1,0,202.43V0Z"/><path class="cls-2" d="M596.26,220.19v161.5H346.92q3.75-3,7.42-5.74A267.78,267.78,0,0,1,454.6,329.24c18.34-4.24,37.35-6.68,54.65-13.63,29.79-11.95,51.41-36,67.53-61.36C583.83,243.17,590.06,231.68,596.26,220.19Z"/></g></g></svg>